<svg xmlns="http://www.w3.org/2000/svg" version="1.1" xmlns:xlink="http://www.w3.org/1999/xlink" xmlns:svgjs="http://svgjs.dev/svgjs" width="1500" height="821" viewBox="0 0 1500 821"><g transform="matrix(1,0,0,1,-0.9090909090909918,-0.6838558231107186)"><svg viewBox="0 0 396 217" data-background-color="#ffffff" preserveAspectRatio="xMidYMid meet" height="821" width="1500" xmlns="http://www.w3.org/2000/svg" xmlns:xlink="http://www.w3.org/1999/xlink"><g id="tight-bounds" transform="matrix(1,0,0,1,0.2400000000000091,0.18075117370892713)"><svg viewBox="0 0 395.52 216.63849765258215" height="216.63849765258215" width="395.52"><g><svg viewBox="0 0 395.52 216.63849765258215" height="216.63849765258215" width="395.52"><g><svg viewBox="0 0 395.52 216.63849765258215" height="216.63849765258215" width="395.52"><g id="textblocktransform"><svg viewBox="0 0 395.52 216.63849765258215" height="216.63849765258215" width="395.52" id="textblock"><g><svg viewBox="0 0 395.52 216.63849765258215" height="216.63849765258215" width="395.52"><g transform="matrix(1,0,0,1,0,0)"><svg width="395.52" viewBox="1.25 -35 63.900000000000006 35" height="216.63849765258215" data-palette-color="#ff33b5"><path d="M32.25-34.05L29.5-34.05 29.5 0 22.5 0 5.35-32.35 5.35-0.95 8.1-0.95 8.1 0 1.25 0 1.25-0.95 4-0.95 4-34.05 1.25-34.05 1.25-35 15.05-35 28.15-9.9 28.15-34.05 25.4-34.05 25.4-35 32.25-35 32.25-34.05ZM34.55-34.05L34.55-35 49.5-35Q56.45-35 59.92-33.13 63.4-31.25 63.4-26.8L63.4-26.8Q63.4-19.95 55.15-18.6L55.15-18.6 55.15-18.5Q65.15-17.25 65.15-9.8L65.15-9.8Q65.15-4.35 61.05-2.18 56.95 0 49.25 0L49.25 0 34.55 0 34.55-0.95 37.8-0.95 37.8-34.05 34.55-34.05ZM48.7-17.7L47.55-17.7 47.55-0.95 49.9-0.95Q52.65-0.95 53.75-2.85 54.85-4.75 54.85-8.45L54.85-8.45 54.85-11.1Q54.85-14.4 53.5-16.05 52.15-17.7 48.7-17.7L48.7-17.7ZM49.15-34.05L47.55-34.05 47.55-18.65 48.85-18.65Q51.45-18.65 52.47-20.23 53.5-21.8 53.5-25.05L53.5-25.05 53.5-27.4Q53.5-31.1 52.6-32.58 51.7-34.05 49.15-34.05L49.15-34.05Z" opacity="1" transform="matrix(1,0,0,1,0,0)" fill="#ff33b5" class="wordmark-text-0" data-fill-palette-color="primary" id="text-0"></path></svg></g></svg></g></svg></g></svg></g></svg></g><defs></defs></svg><rect width="395.52" height="216.63849765258215" fill="none" stroke="none" visibility="hidden"></rect></g></svg></g></svg>